<svg width="275" height="39" viewBox="0 0 275 39" fill="none" xmlns="http://www.w3.org/2000/svg">
<rect opacity="0.5" x="28" y="22" width="212" height="15" fill="#EB6440"/>
<path d="M4.40256 18.24V21.648C4.40256 22.288 4.59456 22.808 4.97856 23.208C5.37856 23.592 5.89856 23.784 6.53856 23.784H14.6266C15.3146 23.784 15.7866 23.608 16.0426 23.256C16.3146 22.904 16.4506 22.432 16.4506 21.84V10.296H19.6426V20.544C19.6426 22.192 19.2906 23.68 18.5866 25.008C17.8986 26.336 16.5706 27 14.6026 27H6.53856C5.53056 27 4.61856 26.768 3.80256 26.304C3.00256 25.824 2.36256 25.184 1.88256 24.384C1.41856 23.568 1.18656 22.656 1.18656 21.648V18.24H4.40256ZM20.9866 27C20.1866 27 19.4346 26.744 18.7306 26.232C18.0426 25.72 17.4906 25.08 17.0746 24.312C16.6586 23.544 16.4506 22.792 16.4506 22.056L16.4266 10.296H19.6426V21.84C19.6426 22.432 19.7706 22.904 20.0266 23.256C20.2986 23.608 20.7706 23.784 21.4426 23.784H22.4986V27H20.9866ZM10.1866 17.352C9.57856 17.224 9.05856 16.976 8.62656 16.608C8.19456 16.224 7.97856 15.712 7.97856 15.072C7.97856 14.416 8.17856 13.888 8.57856 13.488C8.97856 13.088 9.52256 12.888 10.2106 12.888C10.9306 12.888 11.4986 13.112 11.9146 13.56C12.3306 13.992 12.5626 14.608 12.6106 15.408H11.1466C11.0986 15.12 10.9946 14.904 10.8346 14.76C10.6746 14.6 10.4826 14.52 10.2586 14.52C10.0186 14.52 9.83456 14.584 9.70656 14.712C9.57856 14.824 9.51456 15 9.51456 15.24C9.51456 15.512 9.61056 15.792 9.80256 16.08C9.99456 16.352 10.3146 16.56 10.7626 16.704L10.1866 17.352ZM12.7546 16.488V18.12H7.71456V16.488H12.7546ZM22.303 23.784H24.631C24.407 23.48 24.231 23.136 24.103 22.752C23.975 22.368 23.911 21.952 23.911 21.504V20.136C23.911 19.096 24.143 18.168 24.607 17.352C25.071 16.52 25.719 15.864 26.551 15.384C27.399 14.904 28.351 14.664 29.407 14.664C30.479 14.664 31.431 14.904 32.263 15.384C33.111 15.848 33.767 16.496 34.231 17.328C34.695 18.16 34.927 19.096 34.927 20.136V21.504C34.927 21.936 34.855 22.344 34.711 22.728C34.583 23.112 34.407 23.464 34.183 23.784H36.463V27H22.303V23.784ZM29.479 23.784C30.151 23.784 30.687 23.568 31.087 23.136C31.503 22.688 31.711 22.144 31.711 21.504V20.136C31.711 19.448 31.511 18.904 31.111 18.504C30.711 18.088 30.151 17.88 29.431 17.88C28.711 17.88 28.143 18.08 27.727 18.48C27.311 18.88 27.103 19.432 27.103 20.136V21.504C27.103 21.92 27.215 22.304 27.439 22.656C27.679 23.008 27.975 23.288 28.327 23.496C28.695 23.688 29.079 23.784 29.479 23.784ZM20.911 26.496V24.288L22.303 23.784V27L20.911 26.496ZM26.455 13.08C25.943 13.08 25.495 12.896 25.111 12.528C24.743 12.144 24.559 11.696 24.559 11.184C24.559 10.672 24.743 10.232 25.111 9.864C25.495 9.48 25.943 9.288 26.455 9.288C26.983 9.288 27.431 9.48 27.799 9.864C28.167 10.232 28.351 10.672 28.351 11.184C28.351 11.696 28.167 12.144 27.799 12.528C27.431 12.896 26.983 13.08 26.455 13.08ZM31.591 13.08C31.079 13.08 30.631 12.896 30.247 12.528C29.879 12.144 29.695 11.696 29.695 11.184C29.695 10.672 29.879 10.232 30.247 9.864C30.631 9.48 31.079 9.288 31.591 9.288C32.103 9.288 32.543 9.48 32.911 9.864C33.295 10.232 33.487 10.672 33.487 11.184C33.487 11.696 33.295 12.144 32.911 12.528C32.543 12.896 32.103 13.08 31.591 13.08ZM38.7421 33.048C38.2301 33.048 37.7821 32.864 37.3981 32.496C37.0301 32.128 36.8461 31.68 36.8461 31.152C36.8461 30.656 37.0301 30.216 37.3981 29.832C37.7821 29.464 38.2301 29.28 38.7421 29.28C39.2701 29.28 39.7181 29.464 40.0861 29.832C40.4541 30.216 40.6381 30.656 40.6381 31.152C40.6381 31.68 40.4541 32.128 40.0861 32.496C39.7181 32.864 39.2701 33.048 38.7421 33.048ZM43.8781 33.048C43.3661 33.048 42.9181 32.864 42.5341 32.496C42.1661 32.128 41.9821 31.68 41.9821 31.152C41.9821 30.656 42.1661 30.216 42.5341 29.832C42.9181 29.464 43.3661 29.28 43.8781 29.28C44.3901 29.28 44.8301 29.464 45.1981 29.832C45.5821 30.216 45.7741 30.656 45.7741 31.152C45.7741 31.68 45.5821 32.128 45.1981 32.496C44.8301 32.864 44.3901 33.048 43.8781 33.048ZM36.1501 23.784H40.9261C41.1661 23.784 41.3821 23.704 41.5741 23.544C41.7661 23.368 41.8621 23.104 41.8621 22.752V15.624H45.0781V23.928C45.0781 24.488 44.9341 25.008 44.6461 25.488C44.3741 25.952 44.0061 26.32 43.5421 26.592C43.0781 26.864 42.5661 27 42.0061 27H36.1501V23.784ZM57.2879 23.784V27H55.1519V23.784H57.2879ZM48.7199 29.304H49.8959C50.3119 29.304 50.6799 29.216 50.9999 29.04C51.3359 28.864 51.5919 28.608 51.7679 28.272C51.9439 27.952 52.0319 27.576 52.0319 27.144V15.408H55.2479V27.144C55.2479 28.152 55.0079 29.064 54.5279 29.88C54.0639 30.696 53.4239 31.336 52.6079 31.8C51.8079 32.28 50.9039 32.52 49.8959 32.52H48.7199V29.304ZM69.4471 14.76C70.8391 14.76 72.0071 15.056 72.9511 15.648C73.9111 16.224 74.6311 17 75.1111 17.976C75.6071 18.952 75.8551 20.016 75.8551 21.168C75.8551 22.224 75.5911 23.2 75.0631 24.096C74.5511 24.992 73.8471 25.704 72.9511 26.232C72.0551 26.744 71.0871 27 70.0471 27H56.9431V23.784H59.5111V10.296H62.7271V18.48C63.7671 17.344 64.8471 16.44 65.9671 15.768C67.0871 15.096 68.2471 14.76 69.4471 14.76ZM70.4311 23.784C70.8631 23.784 71.2471 23.68 71.5831 23.472C71.9351 23.264 72.2151 22.984 72.4231 22.632C72.6311 22.28 72.7351 21.896 72.7351 21.48C72.7351 20.808 72.5751 20.2 72.2551 19.656C71.9511 19.112 71.5191 18.688 70.9591 18.384C70.3991 18.064 69.7671 17.904 69.0631 17.904C67.9591 17.904 66.8871 18.208 65.8471 18.816C64.8071 19.424 63.7671 20.36 62.7271 21.624V23.784H70.4311ZM95.1989 23.76V27H87.7589V23.76H95.1989ZM95.1509 17.76C93.9829 17.28 92.8549 17.072 91.7669 17.136C90.6789 17.184 89.7989 17.512 89.1269 18.12C88.4549 18.712 88.1189 19.528 88.1189 20.568C88.1189 21.72 88.4309 22.544 89.0549 23.04C89.6789 23.52 90.5349 23.76 91.6229 23.76L90.9509 25.944C89.5749 25.88 88.4069 25.624 87.4469 25.176C86.5029 24.712 85.7829 24.08 85.2869 23.28C84.8069 22.464 84.5669 21.536 84.5669 20.496C84.5669 18.64 85.0949 17.168 86.1509 16.08C87.2229 14.992 88.5829 14.352 90.2309 14.16C91.8949 13.952 93.5349 14.16 95.1509 14.784V17.76ZM94.7189 35.64C92.9269 36.52 91.1349 36.84 89.3429 36.6C87.5669 36.376 86.1029 35.68 84.9509 34.512C83.8149 33.344 83.2469 31.88 83.2469 30.12C83.2469 28.856 83.5429 27.744 84.1349 26.784C84.7269 25.824 85.5349 25.088 86.5589 24.576C87.5829 24.048 88.7189 23.784 89.9669 23.784H90.3749V27H89.9669C88.9269 27 88.0789 27.264 87.4229 27.792C86.7829 28.336 86.4629 29.112 86.4629 30.12C86.4629 31.08 86.8709 31.856 87.6869 32.448C88.5189 33.056 89.5749 33.392 90.8549 33.456C92.1349 33.52 93.4229 33.272 94.7189 32.712V35.64ZM105.564 21.816V26.424C105.564 27.208 105.724 27.896 106.044 28.488C106.38 29.096 106.844 29.568 107.436 29.904C108.044 30.24 108.74 30.408 109.524 30.408H109.692C110.476 30.408 111.164 30.24 111.756 29.904C112.364 29.568 112.836 29.096 113.172 28.488C113.508 27.896 113.676 27.208 113.676 26.424V15.48H116.868V26.424C116.868 27.784 116.556 29.008 115.932 30.096C115.308 31.2 114.444 32.064 113.34 32.688C112.252 33.312 111.036 33.624 109.692 33.624H109.524C108.164 33.624 106.94 33.312 105.852 32.688C104.764 32.064 103.908 31.2 103.284 30.096C102.66 29.008 102.348 27.784 102.348 26.424V21.816H105.564ZM108.66 16.728C108.148 16.728 107.7 16.544 107.316 16.176C106.948 15.808 106.764 15.36 106.764 14.832C106.764 14.336 106.948 13.904 107.316 13.536C107.7 13.152 108.148 12.96 108.66 12.96C109.188 12.96 109.636 13.152 110.004 13.536C110.372 13.904 110.556 14.336 110.556 14.832C110.556 15.36 110.372 15.808 110.004 16.176C109.636 16.544 109.188 16.728 108.66 16.728ZM121.16 29.208C122.696 29.512 123.92 29.616 124.832 29.52C125.76 29.424 126.408 29.184 126.776 28.8C127.16 28.416 127.352 27.904 127.352 27.264V23.52L130.568 22.152V28.056C130.568 29.208 130.192 30.192 129.44 31.008C128.704 31.824 127.624 32.344 126.2 32.568C124.792 32.808 123.112 32.68 121.16 32.184V29.208ZM124.76 26.952C123.8 26.952 122.912 26.712 122.096 26.232C121.28 25.736 120.632 25.072 120.152 24.24C119.688 23.392 119.456 22.48 119.456 21.504V20.088C119.456 19.08 119.688 18.16 120.152 17.328C120.616 16.48 121.264 15.824 122.096 15.36C122.944 14.88 123.88 14.64 124.904 14.64H125.144C126.168 14.64 127.088 14.88 127.904 15.36C128.736 15.824 129.384 16.48 129.848 17.328C130.328 18.16 130.568 19.08 130.568 20.088V22.488L127.352 23.88V20.088C127.352 19.416 127.144 18.872 126.728 18.456C126.328 18.04 125.8 17.832 125.144 17.832H124.904C124.456 17.832 124.064 17.928 123.728 18.12C123.392 18.312 123.128 18.584 122.936 18.936C122.744 19.272 122.648 19.656 122.648 20.088V21.504C122.648 21.904 122.744 22.28 122.936 22.632C123.128 22.968 123.384 23.24 123.704 23.448C124.04 23.656 124.392 23.76 124.76 23.76V26.952ZM128.936 23.76V26.952H124.712V23.76H128.936ZM145.484 23.784V27H142.556V23.784H145.484ZM132.98 23.784H139.7V20.256C139.7 19.792 139.596 19.384 139.388 19.032C139.196 18.68 138.916 18.408 138.548 18.216C138.196 18.008 137.788 17.904 137.324 17.904H134.66V14.688H137.324C138.364 14.688 139.308 14.936 140.156 15.432C141.004 15.912 141.668 16.576 142.148 17.424C142.644 18.272 142.892 19.216 142.892 20.256V27H132.98V23.784ZM156.945 20.88C157.345 21.744 157.689 22.384 157.977 22.8C158.281 23.2 158.529 23.464 158.721 23.592C158.913 23.704 159.105 23.768 159.297 23.784V27H145.257V23.784H154.809C154.665 23.624 154.513 23.408 154.353 23.136C154.209 22.864 154.025 22.52 153.801 22.104C153.737 21.976 153.673 21.848 153.609 21.72C153.545 21.592 153.481 21.464 153.417 21.336C152.777 20.248 152.145 19.424 151.521 18.864C150.913 18.288 150.177 17.936 149.313 17.808C148.465 17.664 147.457 17.816 146.289 18.264V15.312C147.777 14.784 149.177 14.656 150.489 14.928C151.801 15.2 152.993 15.848 154.065 16.872C155.153 17.88 156.113 19.216 156.945 20.88ZM145.257 23.784V27L143.865 26.496V24.312L145.257 23.784ZM149.697 12.984C149.185 12.984 148.737 12.8 148.353 12.432C147.985 12.064 147.801 11.616 147.801 11.088C147.801 10.592 147.985 10.16 148.353 9.792C148.737 9.408 149.185 9.216 149.697 9.216C150.209 9.216 150.649 9.408 151.017 9.792C151.401 10.16 151.593 10.592 151.593 11.088C151.593 11.616 151.401 12.064 151.017 12.432C150.649 12.8 150.209 12.984 149.697 12.984ZM164.893 10.296V22.752C164.893 23.104 164.989 23.368 165.181 23.544C165.389 23.704 165.613 23.784 165.853 23.784H167.029V27H164.773C164.213 27 163.693 26.864 163.213 26.592C162.749 26.32 162.381 25.952 162.109 25.488C161.837 25.008 161.701 24.488 161.701 23.928V10.296H164.893ZM169.148 23.784C169.82 23.784 170.284 23.616 170.54 23.28C170.796 22.928 170.924 22.448 170.924 21.84V15.624H174.14V20.544C174.14 22.192 173.788 23.68 173.084 25.008C172.38 26.336 171.052 27 169.1 27H166.724V23.784H169.148ZM175.484 27C174.668 27 173.908 26.744 173.204 26.232C172.516 25.72 171.964 25.08 171.548 24.312C171.148 23.544 170.948 22.792 170.948 22.056L170.9 15.624H174.116V21.84C174.116 22.432 174.244 22.904 174.5 23.256C174.772 23.608 175.244 23.784 175.916 23.784H179.252V27H175.484ZM166.724 23.784V27L165.332 26.496V24.312L166.724 23.784ZM170.132 13.92C169.62 13.92 169.172 13.736 168.788 13.368C168.42 12.984 168.236 12.536 168.236 12.024C168.236 11.512 168.42 11.072 168.788 10.704C169.172 10.336 169.62 10.152 170.132 10.152C170.644 10.152 171.084 10.336 171.452 10.704C171.836 11.072 172.028 11.512 172.028 12.024C172.028 12.536 171.836 12.984 171.452 13.368C171.084 13.736 170.644 13.92 170.132 13.92ZM175.268 13.92C174.74 13.92 174.292 13.736 173.924 13.368C173.556 12.984 173.372 12.536 173.372 12.024C173.372 11.512 173.556 11.072 173.924 10.704C174.292 10.336 174.74 10.152 175.268 10.152C175.78 10.152 176.22 10.336 176.588 10.704C176.956 11.072 177.14 11.512 177.14 12.024C177.14 12.536 176.956 12.984 176.588 13.368C176.22 13.736 175.78 13.92 175.268 13.92ZM179.007 23.784H180.183C180.423 23.784 180.639 23.704 180.831 23.544C181.023 23.368 181.119 23.104 181.119 22.752V10.296H184.335V23.928C184.335 24.488 184.199 25.008 183.927 25.488C183.655 25.952 183.279 26.32 182.799 26.592C182.335 26.864 181.823 27 181.263 27H179.007V23.784ZM177.615 26.496V24.288L179.007 23.784V27L177.615 26.496ZM212.503 14.76C213.895 14.76 215.063 15.056 216.007 15.648C216.967 16.224 217.687 17.032 218.167 18.072C218.647 19.096 218.887 20.272 218.887 21.6C218.887 22.576 218.639 23.48 218.143 24.312C217.663 25.128 217.007 25.784 216.175 26.28C215.359 26.76 214.463 27 213.487 27H206.023C205.863 28.2 205.455 29.264 204.799 30.192C204.143 31.136 203.303 31.864 202.279 32.376C201.271 32.904 200.159 33.168 198.943 33.168H198.751C197.407 33.168 196.183 32.856 195.079 32.232C193.991 31.608 193.135 30.744 192.511 29.64C191.887 28.552 191.575 27.336 191.575 25.992V21.36H194.791V25.992C194.791 26.776 194.951 27.464 195.271 28.056C195.607 28.664 196.071 29.128 196.663 29.448C197.271 29.784 197.967 29.952 198.751 29.952H198.919C199.655 29.952 200.327 29.776 200.935 29.424C201.543 29.088 202.023 28.608 202.375 27.984C202.727 27.376 202.903 26.712 202.903 25.992V15.96H206.095V18.12C207.087 17.096 208.119 16.28 209.191 15.672C210.263 15.064 211.367 14.76 212.503 14.76ZM213.415 23.784C213.847 23.784 214.239 23.68 214.591 23.472C214.959 23.264 215.247 22.984 215.455 22.632C215.679 22.264 215.791 21.856 215.791 21.408C215.791 20.72 215.631 20.112 215.311 19.584C215.007 19.056 214.575 18.648 214.015 18.36C213.455 18.056 212.823 17.904 212.119 17.904C211.079 17.904 210.063 18.176 209.071 18.72C208.095 19.248 207.103 20.072 206.095 21.192V23.784H213.415ZM225.104 10.296V22.752C225.104 23.104 225.2 23.368 225.392 23.544C225.6 23.704 225.824 23.784 226.064 23.784H227.24V27H224.984C224.424 27 223.904 26.864 223.424 26.592C222.96 26.32 222.592 25.952 222.32 25.488C222.048 25.008 221.912 24.488 221.912 23.928V10.296H225.104ZM243.183 23.784V27H240.783V23.784H243.183ZM238.719 20.88C239.119 21.744 239.463 22.384 239.751 22.8C240.055 23.2 240.303 23.464 240.495 23.592C240.703 23.704 240.895 23.768 241.071 23.784H241.095V27H227.031V23.784H236.583C236.439 23.624 236.287 23.408 236.127 23.136C235.983 22.864 235.799 22.52 235.575 22.104C235.511 21.976 235.447 21.848 235.383 21.72C235.335 21.592 235.271 21.464 235.191 21.336C234.567 20.248 233.943 19.424 233.319 18.864C232.695 18.288 231.951 17.936 231.087 17.808C230.239 17.664 229.239 17.816 228.087 18.264V15.312C229.559 14.784 230.951 14.656 232.263 14.928C233.575 15.2 234.775 15.848 235.863 16.872C236.951 17.88 237.903 19.216 238.719 20.88ZM227.031 23.784V27L225.639 26.496V24.312L227.031 23.784ZM231.471 12.984C230.959 12.984 230.511 12.8 230.127 12.432C229.759 12.064 229.575 11.616 229.575 11.088C229.575 10.592 229.759 10.16 230.127 9.792C230.511 9.408 230.959 9.216 231.471 9.216C231.983 9.216 232.423 9.408 232.791 9.792C233.175 10.16 233.367 10.592 233.367 11.088C233.367 11.616 233.175 12.064 232.791 12.432C232.423 12.8 231.983 12.984 231.471 12.984ZM241.716 26.496V24.288L243.108 23.784V27L241.716 26.496ZM261.9 14.904V22.2C261.9 23.064 261.684 23.864 261.252 24.6C260.82 25.336 260.236 25.92 259.5 26.352C258.764 26.784 257.964 27 257.1 27C256.412 27 255.788 26.896 255.228 26.688C254.668 26.464 254.188 26.16 253.788 25.776C253.324 26.208 252.804 26.528 252.228 26.736C251.668 26.944 251.076 27.048 250.452 27.048C249.828 27.048 249.26 26.944 248.748 26.736C248.236 26.528 247.756 26.208 247.308 25.776C246.892 26.16 246.412 26.464 245.868 26.688C245.324 26.896 244.748 27 244.14 27H243.132V23.784H244.164C244.628 23.784 245.004 23.64 245.292 23.352C245.58 23.064 245.724 22.696 245.724 22.248V17.4H248.916V22.248C248.916 22.744 249.052 23.136 249.324 23.424C249.612 23.712 250.012 23.856 250.524 23.856C251.02 23.856 251.42 23.712 251.724 23.424C252.044 23.136 252.204 22.744 252.204 22.248V17.4H255.396V22.248C255.396 22.728 255.548 23.104 255.852 23.376C256.156 23.648 256.572 23.784 257.1 23.784C257.548 23.784 257.924 23.632 258.228 23.328C258.532 23.024 258.684 22.648 258.684 22.2V14.904H261.9ZM250.764 14.184C250.252 14.184 249.804 14 249.42 13.632C249.052 13.248 248.868 12.8 248.868 12.288C248.868 11.776 249.052 11.336 249.42 10.968C249.804 10.6 250.252 10.416 250.764 10.416C251.276 10.416 251.716 10.6 252.084 10.968C252.468 11.336 252.66 11.776 252.66 12.288C252.66 12.8 252.468 13.248 252.084 13.632C251.716 14 251.276 14.184 250.764 14.184ZM255.828 14.184C255.316 14.184 254.868 14 254.484 13.632C254.116 13.248 253.932 12.8 253.932 12.288C253.932 11.776 254.116 11.336 254.484 10.968C254.868 10.6 255.316 10.416 255.828 10.416C256.356 10.416 256.804 10.6 257.172 10.968C257.54 11.336 257.724 11.776 257.724 12.288C257.724 12.8 257.54 13.248 257.172 13.632C256.804 14 256.356 14.184 255.828 14.184ZM253.38 10.176C252.868 10.176 252.42 9.992 252.036 9.624C251.668 9.256 251.484 8.808 251.484 8.28C251.484 7.784 251.668 7.352 252.036 6.984C252.42 6.6 252.868 6.408 253.38 6.408C253.892 6.408 254.332 6.6 254.7 6.984C255.084 7.352 255.276 7.784 255.276 8.28C255.276 8.808 255.084 9.256 254.7 9.624C254.332 9.992 253.892 10.176 253.38 10.176ZM265.39 27V10.296H268.606V27H265.39ZM266.95 7.584C266.278 7.456 265.71 7.192 265.246 6.792C264.782 6.392 264.55 5.832 264.55 5.112C264.55 4.424 264.766 3.864 265.198 3.432C265.63 3 266.222 2.784 266.974 2.784C267.742 2.784 268.35 3.024 268.798 3.504C269.262 3.968 269.518 4.632 269.566 5.496H267.958C267.91 5.208 267.798 4.976 267.622 4.8C267.462 4.624 267.262 4.536 267.022 4.536C266.766 4.536 266.566 4.608 266.422 4.752C266.278 4.88 266.206 5.072 266.206 5.328C266.206 5.6 266.31 5.888 266.518 6.192C266.742 6.496 267.094 6.728 267.574 6.888L266.95 7.584ZM269.71 6.648V8.424H264.262V6.648H269.71Z" fill="#272739"/>
</svg>
