<svg width="195" height="39" viewBox="0 0 195 39" fill="none" xmlns="http://www.w3.org/2000/svg">
<rect opacity="0.5" x="12" y="23" width="173" height="15" fill="#EB6440"/>
<path d="M4.18772 18.24V21.648C4.18772 22.288 4.37972 22.808 4.76372 23.208C5.16372 23.592 5.68372 23.784 6.32372 23.784H14.4117C15.0997 23.784 15.5717 23.608 15.8277 23.256C16.0997 22.904 16.2357 22.432 16.2357 21.84V10.296H19.4277V20.544C19.4277 22.192 19.0757 23.68 18.3717 25.008C17.6837 26.336 16.3557 27 14.3877 27H6.32372C5.31572 27 4.40372 26.768 3.58772 26.304C2.78772 25.824 2.14772 25.184 1.66772 24.384C1.20372 23.568 0.971719 22.656 0.971719 21.648V18.24H4.18772ZM20.7717 27C19.9717 27 19.2197 26.744 18.5157 26.232C17.8277 25.72 17.2757 25.08 16.8597 24.312C16.4437 23.544 16.2357 22.792 16.2357 22.056L16.2117 10.296H19.4277V21.84C19.4277 22.432 19.5557 22.904 19.8117 23.256C20.0837 23.608 20.5557 23.784 21.2277 23.784H22.2837V27H20.7717ZM9.97172 17.352C9.36372 17.224 8.84372 16.976 8.41172 16.608C7.97972 16.224 7.76372 15.712 7.76372 15.072C7.76372 14.416 7.96372 13.888 8.36372 13.488C8.76372 13.088 9.30772 12.888 9.99572 12.888C10.7157 12.888 11.2837 13.112 11.6997 13.56C12.1157 13.992 12.3477 14.608 12.3957 15.408H10.9317C10.8837 15.12 10.7797 14.904 10.6197 14.76C10.4597 14.6 10.2677 14.52 10.0437 14.52C9.80372 14.52 9.61972 14.584 9.49172 14.712C9.36372 14.824 9.29972 15 9.29972 15.24C9.29972 15.512 9.39572 15.792 9.58772 16.08C9.77972 16.352 10.0997 16.56 10.5477 16.704L9.97172 17.352ZM12.5397 16.488V18.12H7.49972V16.488H12.5397ZM38.0482 23.784V27H33.1282C32.5042 27 31.9282 26.896 31.4002 26.688C30.8722 26.464 30.4082 26.104 30.0082 25.608C29.0802 26.536 27.9842 27 26.7202 27H22.1362V23.784H25.9042C26.1922 23.784 26.6002 23.76 27.1282 23.712C27.6562 23.648 28.0802 23.568 28.4002 23.472L24.3922 18.264V15.936C25.6082 15.488 26.6402 15.168 27.4882 14.976C28.3362 14.784 29.2482 14.688 30.2242 14.688C31.3922 14.688 32.4162 14.84 33.2962 15.144C34.1922 15.432 34.8882 15.856 35.3842 16.416C35.8802 16.96 36.1282 17.616 36.1282 18.384C36.1282 18.816 36.0242 19.304 35.8162 19.848C35.5922 20.472 35.3122 21.008 34.9762 21.456C34.6562 21.888 34.2082 22.384 33.6322 22.944L33.0802 23.472C33.4162 23.584 33.7602 23.664 34.1122 23.712C34.4802 23.76 34.8562 23.784 35.2402 23.784H38.0482ZM30.3202 22.08L30.6802 21.696C31.0162 21.328 31.3122 20.96 31.5682 20.592C31.8242 20.224 32.0322 19.824 32.1922 19.392L32.2162 19.344C32.2802 19.216 32.3202 19.096 32.3362 18.984C32.3682 18.872 32.3842 18.768 32.3842 18.672C32.3842 18.352 32.2002 18.104 31.8322 17.928C31.4642 17.752 30.8882 17.664 30.1042 17.664C29.6562 17.664 29.1842 17.712 28.6882 17.808C28.2082 17.888 27.7522 18 27.3202 18.144V18.264L30.3202 22.08ZM20.7682 26.496V24.288L22.1602 23.784V27L20.7682 26.496ZM45.9725 14.616C46.9965 14.616 47.9165 14.856 48.7325 15.336C49.5645 15.8 50.2205 16.456 50.7005 17.304C51.1805 18.136 51.4205 19.064 51.4205 20.088V21.456C51.4205 22.432 51.1805 23.344 50.7005 24.192C50.2205 25.024 49.5725 25.688 48.7565 26.184C47.9405 26.68 47.0525 26.928 46.0925 26.928C45.3565 26.928 44.6525 26.816 43.9805 26.592C43.3085 26.352 42.7005 26.024 42.1565 25.608C41.7725 26.04 41.3085 26.384 40.7645 26.64C40.2205 26.88 39.6285 27 38.9885 27H37.9565L36.5645 26.496V24.288L37.9565 23.784H38.9885C39.3725 23.784 39.6845 23.664 39.9245 23.424C40.1645 23.184 40.2845 22.864 40.2845 22.464V20.088C40.2845 19.064 40.5165 18.136 40.9805 17.304C41.4605 16.456 42.1165 15.8 42.9485 15.336C43.7805 14.856 44.7085 14.616 45.7325 14.616H45.9725ZM48.2045 20.088C48.2045 19.4 47.9965 18.856 47.5805 18.456C47.1805 18.04 46.6445 17.832 45.9725 17.832H45.7325C45.2845 17.832 44.8925 17.928 44.5565 18.12C44.2205 18.296 43.9565 18.56 43.7645 18.912C43.5725 19.248 43.4765 19.64 43.4765 20.088V22.536C43.7805 22.92 44.1565 23.216 44.6045 23.424C45.0685 23.616 45.5645 23.712 46.0925 23.712C46.4765 23.712 46.8285 23.616 47.1485 23.424C47.4685 23.216 47.7245 22.936 47.9165 22.584C48.1085 22.232 48.2045 21.856 48.2045 21.456V20.088ZM82.6615 23.784V27H79.2775V23.784H82.6615ZM69.7975 24.96V20.016C69.7975 19.024 70.0295 18.128 70.4935 17.328C70.9575 16.512 71.5895 15.872 72.3895 15.408C73.2055 14.944 74.1095 14.712 75.1015 14.712H79.8295V27H76.6135V17.904H75.1015C74.6855 17.904 74.3175 17.992 73.9975 18.168C73.6935 18.344 73.4535 18.592 73.2775 18.912C73.1015 19.232 73.0135 19.6 73.0135 20.016V24.96H69.7975ZM61.6855 21.384V26.016C61.6855 26.784 61.8535 27.464 62.1895 28.056C62.5255 28.664 62.9895 29.136 63.5815 29.472C64.1895 29.808 64.8855 29.976 65.6695 29.976H65.8135C66.5975 29.976 67.2855 29.808 67.8775 29.472C68.4855 29.136 68.9575 28.664 69.2935 28.056C69.6295 27.464 69.7975 26.784 69.7975 26.016V21.648H73.0135V26.016C73.0135 27.36 72.6935 28.576 72.0535 29.664C71.4295 30.768 70.5655 31.632 69.4615 32.256C68.3735 32.88 67.1575 33.192 65.8135 33.192H65.6695C64.3095 33.192 63.0775 32.88 61.9735 32.256C60.8855 31.632 60.0295 30.768 59.4055 29.664C58.7815 28.576 58.4695 27.36 58.4695 26.016V21.384H61.6855ZM62.8135 38.088C62.2855 38.088 61.8375 37.904 61.4695 37.536C61.1015 37.168 60.9175 36.72 60.9175 36.192C60.9175 35.696 61.1015 35.256 61.4695 34.872C61.8375 34.504 62.2855 34.32 62.8135 34.32C63.3255 34.32 63.7655 34.504 64.1335 34.872C64.5015 35.256 64.6855 35.696 64.6855 36.192C64.6855 36.72 64.5015 37.168 64.1335 37.536C63.7655 37.904 63.3255 38.088 62.8135 38.088ZM67.9255 38.088C67.4135 38.088 66.9655 37.904 66.5815 37.536C66.2135 37.168 66.0295 36.72 66.0295 36.192C66.0295 35.696 66.2135 35.256 66.5815 34.872C66.9655 34.504 67.4135 34.32 67.9255 34.32C68.4375 34.32 68.8775 34.504 69.2455 34.872C69.6295 35.256 69.8215 35.696 69.8215 36.192C69.8215 36.72 69.6295 37.168 69.2455 37.536C68.8775 37.904 68.4375 38.088 67.9255 38.088ZM86.6866 14.064C86.1746 14.064 85.7266 13.88 85.3426 13.512C84.9746 13.128 84.7906 12.68 84.7906 12.168C84.7906 11.672 84.9746 11.24 85.3426 10.872C85.7266 10.488 86.1746 10.296 86.6866 10.296C87.1986 10.296 87.6386 10.488 88.0066 10.872C88.3906 11.24 88.5826 11.672 88.5826 12.168C88.5826 12.68 88.3906 13.128 88.0066 13.512C87.6386 13.88 87.1986 14.064 86.6866 14.064ZM82.1746 23.784H84.4066C84.6466 23.784 84.8626 23.704 85.0546 23.544C85.2466 23.368 85.3426 23.104 85.3426 22.752V15.624H88.5586V23.928C88.5586 24.488 88.4146 25.008 88.1266 25.488C87.8546 25.952 87.4866 26.32 87.0226 26.592C86.5586 26.864 86.0466 27 85.4866 27H82.1746V23.784ZM103.55 23.784V27H100.622V23.784H103.55ZM91.046 23.784H97.766V20.256C97.766 19.792 97.662 19.384 97.454 19.032C97.262 18.68 96.982 18.408 96.614 18.216C96.262 18.008 95.854 17.904 95.39 17.904H92.726V14.688H95.39C96.43 14.688 97.374 14.936 98.222 15.432C99.07 15.912 99.734 16.576 100.214 17.424C100.71 18.272 100.958 19.216 100.958 20.256V27H91.046V23.784ZM115.012 20.88C115.412 21.744 115.756 22.384 116.044 22.8C116.348 23.2 116.596 23.464 116.788 23.592C116.98 23.704 117.172 23.768 117.364 23.784V27H103.324V23.784H112.876C112.732 23.624 112.58 23.408 112.42 23.136C112.276 22.864 112.092 22.52 111.868 22.104C111.804 21.976 111.74 21.848 111.676 21.72C111.612 21.592 111.548 21.464 111.484 21.336C110.844 20.248 110.212 19.424 109.588 18.864C108.98 18.288 108.244 17.936 107.38 17.808C106.532 17.664 105.524 17.816 104.356 18.264V15.312C105.844 14.784 107.244 14.656 108.556 14.928C109.868 15.2 111.06 15.848 112.132 16.872C113.22 17.88 114.18 19.216 115.012 20.88ZM103.324 23.784V27L101.932 26.496V24.312L103.324 23.784ZM107.764 12.984C107.252 12.984 106.804 12.8 106.42 12.432C106.052 12.064 105.868 11.616 105.868 11.088C105.868 10.592 106.052 10.16 106.42 9.792C106.804 9.408 107.252 9.216 107.764 9.216C108.276 9.216 108.716 9.408 109.084 9.792C109.468 10.16 109.66 10.592 109.66 11.088C109.66 11.616 109.468 12.064 109.084 12.432C108.716 12.8 108.276 12.984 107.764 12.984ZM130.7 19.968C130.7 18.976 130.932 18.08 131.396 17.28C131.86 16.48 132.492 15.848 133.292 15.384C134.108 14.92 135.012 14.688 136.004 14.688H136.364C137.356 14.688 138.252 14.92 139.052 15.384C139.868 15.848 140.508 16.48 140.972 17.28C141.436 18.08 141.668 18.976 141.668 19.968V27H136.004C135.012 27 134.108 26.768 133.292 26.304C132.492 25.84 131.86 25.208 131.396 24.408C130.932 23.592 130.7 22.688 130.7 21.696V19.968ZM133.916 21.696C133.916 22.32 134.108 22.824 134.492 23.208C134.892 23.592 135.396 23.784 136.004 23.784H138.476V19.968C138.476 19.36 138.276 18.864 137.876 18.48C137.492 18.096 136.988 17.904 136.364 17.904H136.004C135.604 17.904 135.244 17.992 134.924 18.168C134.604 18.344 134.356 18.592 134.18 18.912C134.004 19.216 133.916 19.568 133.916 19.968V21.696ZM127.1 22.248V24.888C127.1 25.976 127.34 26.944 127.82 27.792C128.3 28.656 128.964 29.328 129.812 29.808C130.676 30.288 131.652 30.528 132.74 30.528H132.812C134.012 30.528 135.036 30.288 135.884 29.808C136.748 29.344 137.396 28.688 137.828 27.84C138.26 26.992 138.476 26.008 138.476 24.888V22.848H141.668V24.888C141.668 26.568 141.284 28.08 140.516 29.424C139.748 30.784 138.684 31.848 137.324 32.616C135.98 33.384 134.476 33.768 132.812 33.768H132.74C131.076 33.768 129.564 33.384 128.204 32.616C126.86 31.848 125.796 30.784 125.012 29.424C124.244 28.064 123.86 26.552 123.86 24.888V22.248H127.1ZM143.156 23.784V27H141.524V23.784H143.156ZM133.724 13.08C133.212 13.08 132.764 12.896 132.38 12.528C132.012 12.16 131.828 11.712 131.828 11.184C131.828 10.688 132.012 10.256 132.38 9.888C132.764 9.504 133.212 9.312 133.724 9.312C134.236 9.312 134.676 9.504 135.044 9.888C135.428 10.256 135.62 10.688 135.62 11.184C135.62 11.712 135.428 12.16 135.044 12.528C134.676 12.896 134.236 13.08 133.724 13.08ZM138.86 13.08C138.332 13.08 137.884 12.896 137.516 12.528C137.148 12.16 136.964 11.712 136.964 11.184C136.964 10.688 137.148 10.256 137.516 9.888C137.884 9.504 138.332 9.312 138.86 9.312C139.372 9.312 139.812 9.504 140.18 9.888C140.548 10.256 140.732 10.688 140.732 11.184C140.732 11.712 140.548 12.16 140.18 12.528C139.812 12.896 139.372 13.08 138.86 13.08ZM145.475 23.784C146.163 23.784 146.627 23.616 146.867 23.28C147.123 22.928 147.251 22.448 147.251 21.84V15.624H150.467V20.544C150.467 22.192 150.115 23.68 149.411 25.008C148.723 26.336 147.403 27 145.451 27H142.931V23.784H145.475ZM151.811 27C151.011 27 150.259 26.744 149.555 26.232C148.867 25.72 148.315 25.08 147.899 24.312C147.499 23.544 147.291 22.792 147.275 22.056L147.227 15.624H150.443V21.84C150.443 22.432 150.571 22.904 150.827 23.256C151.099 23.608 151.579 23.784 152.267 23.784H154.595V27H151.811ZM142.931 23.784V27L141.539 26.496V24.312L142.931 23.784ZM145.763 33.024C145.235 33.024 144.787 32.832 144.419 32.448C144.051 32.08 143.867 31.64 143.867 31.128C143.867 30.616 144.051 30.176 144.419 29.808C144.787 29.44 145.235 29.256 145.763 29.256C146.275 29.256 146.715 29.44 147.083 29.808C147.451 30.176 147.635 30.616 147.635 31.128C147.635 31.64 147.451 32.08 147.083 32.448C146.715 32.832 146.275 33.024 145.763 33.024ZM150.875 33.024C150.363 33.024 149.915 32.832 149.531 32.448C149.163 32.08 148.979 31.64 148.979 31.128C148.979 30.616 149.163 30.176 149.531 29.808C149.915 29.44 150.363 29.256 150.875 29.256C151.387 29.256 151.827 29.44 152.195 29.808C152.579 30.176 152.771 30.616 152.771 31.128C152.771 31.64 152.579 32.08 152.195 32.448C151.827 32.832 151.387 33.024 150.875 33.024ZM155.619 23.784C156.291 23.784 156.755 23.616 157.011 23.28C157.267 22.928 157.395 22.448 157.395 21.84V15.624H160.611V20.544C160.611 22.192 160.259 23.68 159.555 25.008C158.851 26.336 157.523 27 155.571 27H154.275V23.784H155.619ZM161.955 27C161.139 27 160.379 26.744 159.675 26.232C158.987 25.72 158.435 25.08 158.019 24.312C157.619 23.544 157.419 22.792 157.419 22.056L157.371 15.624H160.587V21.84C160.587 22.432 160.715 22.904 160.971 23.256C161.243 23.608 161.715 23.784 162.387 23.784H163.779V27H161.955ZM154.275 23.784V27L152.883 26.496V24.312L154.275 23.784ZM158.979 33.6C158.451 33.6 158.003 33.408 157.635 33.024C157.267 32.656 157.083 32.216 157.083 31.704C157.083 31.192 157.267 30.752 157.635 30.384C158.003 30.016 158.451 29.832 158.979 29.832C159.491 29.832 159.931 30.016 160.299 30.384C160.667 30.752 160.851 31.192 160.851 31.704C160.851 32.216 160.667 32.656 160.299 33.024C159.931 33.408 159.491 33.6 158.979 33.6ZM166.615 21.552C167.495 20.272 168.375 19.152 169.255 18.192C170.151 17.216 171.143 16.4 172.231 15.744C173.335 15.088 174.495 14.76 175.711 14.76C177.839 14.76 179.431 15.384 180.487 16.632C181.543 17.88 182.071 19.752 182.071 22.248V27H167.983L166.615 21.552ZM178.975 23.784V22.248C178.975 20.808 178.647 19.728 177.991 19.008C177.335 18.272 176.439 17.904 175.303 17.904C174.199 17.904 173.127 18.208 172.087 18.816C171.063 19.424 170.015 20.36 168.943 21.624V23.784H178.975ZM168.943 10.296V27H165.751V10.296H168.943ZM169.063 23.784V27H163.207V23.784H169.063ZM184.591 23.784V27H179.719V23.784H184.591ZM161.839 26.496V24.288L163.231 23.784V27L161.839 26.496ZM187.032 14.04C186.52 14.04 186.072 13.856 185.688 13.488C185.32 13.104 185.136 12.656 185.136 12.144C185.136 11.632 185.32 11.192 185.688 10.824C186.072 10.44 186.52 10.248 187.032 10.248C187.544 10.248 187.984 10.44 188.352 10.824C188.736 11.192 188.928 11.632 188.928 12.144C188.928 12.656 188.736 13.104 188.352 13.488C187.984 13.856 187.544 14.04 187.032 14.04ZM192.168 14.04C191.64 14.04 191.192 13.856 190.824 13.488C190.456 13.104 190.272 12.656 190.272 12.144C190.272 11.632 190.456 11.192 190.824 10.824C191.192 10.44 191.64 10.248 192.168 10.248C192.68 10.248 193.12 10.44 193.488 10.824C193.856 11.192 194.04 11.632 194.04 12.144C194.04 12.656 193.856 13.104 193.488 13.488C193.12 13.856 192.68 14.04 192.168 14.04ZM184.296 23.784H188.04C188.28 23.784 188.496 23.704 188.688 23.544C188.88 23.368 188.976 23.104 188.976 22.752V15.624H192.192V23.928C192.192 24.488 192.056 25.008 191.784 25.488C191.512 25.952 191.144 26.32 190.68 26.592C190.216 26.864 189.696 27 189.12 27H184.296V23.784Z" fill="#272739"/>
</svg>
