<svg width="226" height="39" viewBox="0 0 226 39" fill="none" xmlns="http://www.w3.org/2000/svg">
<rect opacity="0.5" x="21" y="22" width="204" height="15" fill="#EB6440"/>
<path d="M6.06913 21.84C6.06913 21.264 5.93313 20.792 5.66113 20.424C5.38913 20.056 4.94113 19.672 4.31713 19.272C3.50113 18.728 2.88513 18.176 2.46913 17.616C2.06913 17.04 1.86913 16.352 1.86913 15.552C1.86913 14.672 2.09313 13.92 2.54113 13.296C2.98913 12.656 3.60513 12.176 4.38913 11.856C5.18913 11.52 6.10113 11.352 7.12513 11.352C8.08513 11.352 8.94113 11.528 9.69313 11.88C10.4611 12.216 11.0691 12.736 11.5171 13.44C11.9811 14.128 12.2131 14.968 12.2131 15.96H9.21313C9.21313 15.56 9.11713 15.208 8.92513 14.904C8.74913 14.584 8.50113 14.336 8.18113 14.16C7.86113 13.984 7.50913 13.896 7.12513 13.896C6.75713 13.896 6.42913 13.976 6.14113 14.136C5.85313 14.28 5.62113 14.496 5.44513 14.784C5.26913 15.056 5.18113 15.368 5.18113 15.72C5.18113 16.168 5.31713 16.552 5.58913 16.872C5.86113 17.192 6.32513 17.568 6.98113 18C6.98113 18 6.98113 18.008 6.98113 18.024C6.99713 18.024 7.00513 18.024 7.00513 18.024C7.66113 18.472 8.12513 18.96 8.39713 19.488C8.68513 20.016 8.82913 20.8 8.82913 21.84V22.416H6.06913V21.84ZM7.41313 27.456C6.94913 27.456 6.54113 27.288 6.18913 26.952C5.85313 26.616 5.67713 26.216 5.66113 25.752C5.66113 25.288 5.83713 24.888 6.18913 24.552C6.54113 24.216 6.94913 24.048 7.41313 24.048C7.87713 24.048 8.27713 24.216 8.61313 24.552C8.96513 24.872 9.13313 25.272 9.11713 25.752C9.10113 26.232 8.92513 26.64 8.58913 26.976C8.26913 27.296 7.87713 27.456 7.41313 27.456ZM19.1941 21.84C19.1941 21.264 19.0581 20.792 18.7861 20.424C18.5141 20.056 18.0661 19.672 17.4421 19.272C16.6261 18.728 16.0101 18.176 15.5941 17.616C15.1941 17.04 14.9941 16.352 14.9941 15.552C14.9941 14.672 15.2181 13.92 15.6661 13.296C16.1141 12.656 16.7301 12.176 17.5141 11.856C18.3141 11.52 19.2261 11.352 20.2501 11.352C21.2101 11.352 22.0661 11.528 22.8181 11.88C23.5861 12.216 24.1941 12.736 24.6421 13.44C25.1061 14.128 25.3381 14.968 25.3381 15.96H22.3381C22.3381 15.56 22.2421 15.208 22.0501 14.904C21.8741 14.584 21.6261 14.336 21.3061 14.16C20.9861 13.984 20.6341 13.896 20.2501 13.896C19.8821 13.896 19.5541 13.976 19.2661 14.136C18.9781 14.28 18.7461 14.496 18.5701 14.784C18.3941 15.056 18.3061 15.368 18.3061 15.72C18.3061 16.168 18.4421 16.552 18.7141 16.872C18.9861 17.192 19.4501 17.568 20.1061 18C20.1061 18 20.1061 18.008 20.1061 18.024C20.1221 18.024 20.1301 18.024 20.1301 18.024C20.7861 18.472 21.2501 18.96 21.5221 19.488C21.8101 20.016 21.9541 20.8 21.9541 21.84V22.416H19.1941V21.84ZM20.5381 27.456C20.0741 27.456 19.6661 27.288 19.3141 26.952C18.9781 26.616 18.8021 26.216 18.7861 25.752C18.7861 25.288 18.9621 24.888 19.3141 24.552C19.6661 24.216 20.0741 24.048 20.5381 24.048C21.0021 24.048 21.4021 24.216 21.7381 24.552C22.0901 24.872 22.2581 25.272 22.2421 25.752C22.2261 26.232 22.0501 26.64 21.7141 26.976C21.3941 27.296 21.0021 27.456 20.5381 27.456ZM56.5717 23.784V27H53.1877V23.784H56.5717ZM43.7077 24.96V20.016C43.7077 19.024 43.9397 18.128 44.4037 17.328C44.8677 16.512 45.4997 15.872 46.2997 15.408C47.1157 14.944 48.0197 14.712 49.0117 14.712H53.7397V27H50.5237V17.904H49.0117C48.5957 17.904 48.2277 17.992 47.9077 18.168C47.6037 18.344 47.3637 18.592 47.1877 18.912C47.0117 19.232 46.9237 19.6 46.9237 20.016V24.96H43.7077ZM35.5957 21.384V26.016C35.5957 26.784 35.7637 27.464 36.0997 28.056C36.4357 28.664 36.8997 29.136 37.4917 29.472C38.0997 29.808 38.7957 29.976 39.5797 29.976H39.7237C40.5077 29.976 41.1957 29.808 41.7877 29.472C42.3957 29.136 42.8677 28.664 43.2037 28.056C43.5397 27.464 43.7077 26.784 43.7077 26.016V21.648H46.9237V26.016C46.9237 27.36 46.6037 28.576 45.9637 29.664C45.3397 30.768 44.4757 31.632 43.3717 32.256C42.2837 32.88 41.0677 33.192 39.7237 33.192H39.5797C38.2197 33.192 36.9877 32.88 35.8837 32.256C34.7957 31.632 33.9397 30.768 33.3157 29.664C32.6917 28.576 32.3797 27.36 32.3797 26.016V21.384H35.5957ZM36.7237 38.088C36.1957 38.088 35.7477 37.904 35.3797 37.536C35.0117 37.168 34.8277 36.72 34.8277 36.192C34.8277 35.696 35.0117 35.256 35.3797 34.872C35.7477 34.504 36.1957 34.32 36.7237 34.32C37.2357 34.32 37.6757 34.504 38.0437 34.872C38.4117 35.256 38.5957 35.696 38.5957 36.192C38.5957 36.72 38.4117 37.168 38.0437 37.536C37.6757 37.904 37.2357 38.088 36.7237 38.088ZM41.8357 38.088C41.3237 38.088 40.8757 37.904 40.4917 37.536C40.1237 37.168 39.9397 36.72 39.9397 36.192C39.9397 35.696 40.1237 35.256 40.4917 34.872C40.8757 34.504 41.3237 34.32 41.8357 34.32C42.3477 34.32 42.7877 34.504 43.1557 34.872C43.5397 35.256 43.7317 35.696 43.7317 36.192C43.7317 36.72 43.5397 37.168 43.1557 37.536C42.7877 37.904 42.3477 38.088 41.8357 38.088ZM56.4688 23.784H56.9728C57.5168 23.784 57.9248 23.656 58.1968 23.4C58.4688 23.128 58.6048 22.752 58.6048 22.272V17.4H61.7488L61.7728 22.272C61.7728 22.768 61.9008 23.144 62.1568 23.4C62.4128 23.656 62.7648 23.784 63.2128 23.784H63.9568C64.4048 23.784 64.7568 23.648 65.0128 23.376C65.2848 23.104 65.4208 22.736 65.4208 22.272V17.4H68.5408V22.272C68.5408 22.736 68.6768 23.104 68.9488 23.376C69.2208 23.648 69.5888 23.784 70.0528 23.784H70.8208C71.2848 23.784 71.6448 23.648 71.9008 23.376C72.1568 23.104 72.2848 22.736 72.2848 22.272V15H75.4048V22.272C75.4048 22.752 75.5408 23.128 75.8128 23.4C76.0848 23.656 76.4608 23.784 76.9408 23.784V27C76.4288 27.016 75.9488 26.92 75.5008 26.712C75.0688 26.488 74.7168 26.184 74.4448 25.8C74.0928 26.2 73.6688 26.504 73.1728 26.712C72.6928 26.904 72.1248 27 71.4688 27H70.0048C69.4768 27 68.9968 26.888 68.5648 26.664C68.1328 26.424 67.7888 26.128 67.5328 25.776C67.2288 26.192 66.8288 26.504 66.3328 26.712C65.8528 26.904 65.2688 27 64.5808 27H63.2368C62.6928 27 62.1968 26.888 61.7488 26.664C61.3008 26.424 60.9568 26.12 60.7168 25.752C60.4128 26.168 59.9968 26.48 59.4688 26.688C58.9408 26.896 58.1968 27 57.2368 27H56.9728H56.4688V23.784ZM78.3088 23.784V27H76.9168V23.784H78.3088ZM55.0767 26.496V24.288L56.4688 23.784V27L55.0767 26.496ZM64.5328 14.184C64.0208 14.184 63.5728 14 63.1888 13.632C62.8207 13.248 62.6367 12.8 62.6367 12.288C62.6367 11.776 62.8207 11.336 63.1888 10.968C63.5728 10.6 64.0208 10.416 64.5328 10.416C65.0448 10.416 65.4848 10.6 65.8528 10.968C66.2368 11.336 66.4288 11.776 66.4288 12.288C66.4288 12.8 66.2368 13.248 65.8528 13.632C65.4848 14 65.0448 14.184 64.5328 14.184ZM69.5968 14.184C69.0848 14.184 68.6368 14 68.2528 13.632C67.8848 13.248 67.7008 12.8 67.7008 12.288C67.7008 11.776 67.8848 11.336 68.2528 10.968C68.6368 10.6 69.0848 10.416 69.5968 10.416C70.1248 10.416 70.5728 10.6 70.9408 10.968C71.3088 11.336 71.4928 11.776 71.4928 12.288C71.4928 12.8 71.3088 13.248 70.9408 13.632C70.5728 14 70.1248 14.184 69.5968 14.184ZM67.1488 10.176C66.6368 10.176 66.1888 9.992 65.8048 9.624C65.4368 9.256 65.2528 8.808 65.2528 8.28C65.2528 7.784 65.4368 7.352 65.8048 6.984C66.1888 6.6 66.6368 6.408 67.1488 6.408C67.6608 6.408 68.1008 6.6 68.4688 6.984C68.8528 7.352 69.0448 7.784 69.0448 8.28C69.0448 8.808 68.8528 9.256 68.4688 9.624C68.1008 9.992 67.6608 10.176 67.1488 10.176ZM78.2416 23.784H79.4176C79.6576 23.784 79.8736 23.704 80.0656 23.544C80.2576 23.368 80.3536 23.104 80.3536 22.752V10.296H83.5696V23.928C83.5696 24.488 83.4336 25.008 83.1616 25.488C82.8896 25.952 82.5136 26.32 82.0336 26.592C81.5696 26.864 81.0576 27 80.4976 27H78.2416V23.784ZM76.8496 26.496V24.288L78.2416 23.784V27L76.8496 26.496ZM89.9088 10.296V22.752C89.9088 23.104 90.0048 23.368 90.1968 23.544C90.4048 23.704 90.6288 23.784 90.8688 23.784H92.0448V27H89.7888C89.2288 27 88.7088 26.864 88.2288 26.592C87.7648 26.32 87.3968 25.952 87.1248 25.488C86.8528 25.008 86.7168 24.488 86.7168 23.928V10.296H89.9088ZM98.1479 14.904C100.66 14.344 102.86 14.256 104.748 14.64C106.636 15.008 108.092 15.72 109.116 16.776C110.14 17.816 110.676 19.032 110.724 20.424V21.624C110.724 22.6 110.484 23.504 110.004 24.336C109.524 25.152 108.876 25.8 108.06 26.28C107.244 26.76 106.348 27 105.372 27H91.4999L90.1079 26.496V24.288L91.4999 23.784H95.2199C95.0279 23.528 94.8679 23.232 94.7399 22.896C94.6279 22.544 94.5719 22.176 94.5719 21.792V20.832C94.6199 19.728 94.9719 18.784 95.6279 18C96.2839 17.216 97.1239 16.712 98.1479 16.488V14.904ZM105.3 23.784C105.7 23.784 106.068 23.688 106.404 23.496C106.756 23.288 107.028 23.016 107.22 22.68C107.428 22.344 107.532 21.976 107.532 21.576L107.508 20.424C107.476 19.848 107.212 19.32 106.716 18.84C106.236 18.36 105.564 17.984 104.7 17.712C103.852 17.44 102.892 17.32 101.82 17.352C102.284 17.544 102.692 17.816 103.044 18.168C103.412 18.52 103.692 18.944 103.884 19.44C104.092 19.92 104.196 20.464 104.196 21.072V23.784H105.3ZM101.484 20.976C101.484 20.336 101.3 19.832 100.932 19.464C100.564 19.096 100.06 18.912 99.4199 18.912C98.7479 18.912 98.2279 19.096 97.8599 19.464C97.4919 19.816 97.3079 20.32 97.3079 20.976V21.72C97.3079 22.28 97.5079 22.76 97.9079 23.16C98.3079 23.544 98.7879 23.752 99.3479 23.784H101.484V20.976ZM134.367 23.784V27H133.551C132.975 27 132.431 26.888 131.919 26.664C131.407 26.44 130.975 26.136 130.623 25.752C130.159 26.264 129.599 26.664 128.943 26.952C128.303 27.224 127.591 27.36 126.807 27.36C125.847 27.36 124.999 27.232 124.263 26.976C123.527 26.704 122.879 26.296 122.319 25.752C121.919 25.8 121.607 25.968 121.383 26.256C121.159 26.528 121.047 26.872 121.047 27.288V33.144H117.831V27.288C117.831 26.536 117.975 25.848 118.263 25.224C118.567 24.584 118.983 24.048 119.511 23.616C120.039 23.168 120.647 22.864 121.335 22.704V20.016C121.335 18.992 121.567 18.064 122.031 17.232C122.511 16.384 123.167 15.72 123.999 15.24C124.847 14.76 125.783 14.52 126.807 14.52C127.847 14.52 128.783 14.76 129.615 15.24C130.463 15.72 131.127 16.376 131.607 17.208C132.087 18.04 132.327 18.976 132.327 20.016V22.536C132.327 22.92 132.439 23.224 132.663 23.448C132.887 23.672 133.183 23.784 133.551 23.784H134.367ZM126.807 24.168C127.271 24.168 127.671 24.072 128.007 23.88C128.359 23.688 128.631 23.416 128.823 23.064C129.015 22.712 129.111 22.312 129.111 21.864V20.016C129.111 19.344 128.903 18.8 128.487 18.384C128.071 17.952 127.511 17.736 126.807 17.736C126.359 17.736 125.967 17.832 125.631 18.024C125.295 18.216 125.031 18.488 124.839 18.84C124.647 19.176 124.551 19.568 124.551 20.016V23.424C124.807 23.696 125.103 23.888 125.439 24C125.791 24.112 126.247 24.168 126.807 24.168ZM136.609 23.784C137.281 23.784 137.745 23.616 138.001 23.28C138.257 22.928 138.385 22.448 138.385 21.84V15.624H141.601V20.544C141.601 22.192 141.249 23.68 140.545 25.008C139.841 26.336 138.513 27 136.561 27H134.185V23.784H136.609ZM142.945 27C142.129 27 141.369 26.744 140.665 26.232C139.977 25.72 139.425 25.08 139.009 24.312C138.609 23.544 138.409 22.792 138.409 22.056L138.361 15.624H141.577V21.84C141.577 22.432 141.705 22.904 141.961 23.256C142.233 23.608 142.705 23.784 143.377 23.784H146.713V27H142.945ZM134.185 23.784V27L132.793 26.496V24.312L134.185 23.784ZM137.593 13.92C137.081 13.92 136.633 13.736 136.249 13.368C135.881 12.984 135.697 12.536 135.697 12.024C135.697 11.512 135.881 11.072 136.249 10.704C136.633 10.336 137.081 10.152 137.593 10.152C138.105 10.152 138.545 10.336 138.913 10.704C139.297 11.072 139.489 11.512 139.489 12.024C139.489 12.536 139.297 12.984 138.913 13.368C138.545 13.736 138.105 13.92 137.593 13.92ZM142.729 13.92C142.201 13.92 141.753 13.736 141.385 13.368C141.017 12.984 140.833 12.536 140.833 12.024C140.833 11.512 141.017 11.072 141.385 10.704C141.753 10.336 142.201 10.152 142.729 10.152C143.241 10.152 143.681 10.336 144.049 10.704C144.417 11.072 144.601 11.512 144.601 12.024C144.601 12.536 144.417 12.984 144.049 13.368C143.681 13.736 143.241 13.92 142.729 13.92ZM148.94 23.784C149.628 23.784 150.092 23.616 150.332 23.28C150.588 22.928 150.716 22.448 150.716 21.84V15.624H153.932V20.544C153.932 22.192 153.58 23.68 152.876 25.008C152.188 26.336 150.868 27 148.916 27H146.396V23.784H148.94ZM155.276 27C154.476 27 153.724 26.744 153.02 26.232C152.332 25.72 151.78 25.08 151.364 24.312C150.964 23.544 150.756 22.792 150.74 22.056L150.692 15.624H153.908V21.84C153.908 22.432 154.036 22.904 154.292 23.256C154.564 23.608 155.044 23.784 155.732 23.784H158.06V27H155.276ZM146.396 23.784V27L145.004 26.496V24.312L146.396 23.784ZM149.228 33.024C148.7 33.024 148.252 32.832 147.884 32.448C147.516 32.08 147.332 31.64 147.332 31.128C147.332 30.616 147.516 30.176 147.884 29.808C148.252 29.44 148.7 29.256 149.228 29.256C149.74 29.256 150.18 29.44 150.548 29.808C150.916 30.176 151.1 30.616 151.1 31.128C151.1 31.64 150.916 32.08 150.548 32.448C150.18 32.832 149.74 33.024 149.228 33.024ZM154.34 33.024C153.828 33.024 153.38 32.832 152.996 32.448C152.628 32.08 152.444 31.64 152.444 31.128C152.444 30.616 152.628 30.176 152.996 29.808C153.38 29.44 153.828 29.256 154.34 29.256C154.852 29.256 155.292 29.44 155.66 29.808C156.044 30.176 156.236 30.616 156.236 31.128C156.236 31.64 156.044 32.08 155.66 32.448C155.292 32.832 154.852 33.024 154.34 33.024ZM161.292 33.624C160.78 33.624 160.332 33.44 159.948 33.072C159.58 32.704 159.396 32.256 159.396 31.728C159.396 31.232 159.58 30.792 159.948 30.408C160.332 30.04 160.78 29.856 161.292 29.856C161.804 29.856 162.244 30.04 162.612 30.408C162.996 30.792 163.188 31.232 163.188 31.728C163.188 32.256 162.996 32.704 162.612 33.072C162.244 33.44 161.804 33.624 161.292 33.624ZM157.452 23.784H159.684C159.924 23.784 160.14 23.704 160.332 23.544C160.524 23.368 160.62 23.104 160.62 22.752V15.624H163.836V23.928C163.836 24.488 163.692 25.008 163.404 25.488C163.132 25.952 162.764 26.32 162.3 26.592C161.836 26.864 161.324 27 160.764 27H157.452V23.784ZM175.936 23.784H179.944C179.72 23.464 179.536 23.112 179.392 22.728C179.264 22.344 179.2 21.936 179.2 21.504V20.136C179.2 19.112 179.432 18.184 179.896 17.352C180.376 16.52 181.032 15.864 181.864 15.384C182.712 14.904 183.664 14.664 184.72 14.664C185.792 14.664 186.744 14.904 187.576 15.384C188.408 15.848 189.056 16.496 189.52 17.328C189.984 18.16 190.216 19.096 190.216 20.136V21.504C190.216 21.952 190.152 22.368 190.024 22.752C189.896 23.136 189.72 23.48 189.496 23.784H192.76V27H175.936V23.784ZM184.768 23.784C185.44 23.784 185.984 23.568 186.4 23.136C186.816 22.704 187.024 22.16 187.024 21.504V20.136C187.024 19.448 186.816 18.904 186.4 18.504C186 18.088 185.448 17.88 184.744 17.88C184.008 17.88 183.432 18.08 183.016 18.48C182.616 18.88 182.416 19.432 182.416 20.136V21.504C182.416 21.92 182.528 22.304 182.752 22.656C182.976 23.008 183.264 23.288 183.616 23.496C183.984 23.688 184.368 23.784 184.768 23.784ZM175.984 27C174.976 27 174.064 26.768 173.248 26.304C172.432 25.824 171.792 25.184 171.328 24.384C170.864 23.568 170.632 22.656 170.632 21.648V18.6H173.848V21.648C173.848 22.288 174.04 22.808 174.424 23.208C174.824 23.592 175.344 23.784 175.984 23.784V27ZM184.696 12.744C184.168 12.744 183.72 12.56 183.352 12.192C182.984 11.824 182.8 11.376 182.8 10.848C182.8 10.352 182.984 9.92 183.352 9.552C183.72 9.168 184.168 8.976 184.696 8.976C185.208 8.976 185.648 9.168 186.016 9.552C186.384 9.92 186.568 10.352 186.568 10.848C186.568 11.376 186.384 11.824 186.016 12.192C185.648 12.56 185.208 12.744 184.696 12.744ZM195.089 23.784C195.777 23.784 196.241 23.616 196.481 23.28C196.737 22.928 196.865 22.448 196.865 21.84V15.624H200.081V20.544C200.081 22.192 199.729 23.68 199.025 25.008C198.337 26.336 197.017 27 195.065 27H192.545V23.784H195.089ZM201.425 27C200.625 27 199.873 26.744 199.169 26.232C198.481 25.72 197.929 25.08 197.513 24.312C197.113 23.544 196.905 22.792 196.889 22.056L196.841 15.624H200.057V21.84C200.057 22.432 200.185 22.904 200.441 23.256C200.713 23.608 201.193 23.784 201.881 23.784H204.209V27H201.425ZM192.545 23.784V27L191.153 26.496V24.312L192.545 23.784ZM195.377 33.024C194.849 33.024 194.401 32.832 194.033 32.448C193.665 32.08 193.481 31.64 193.481 31.128C193.481 30.616 193.665 30.176 194.033 29.808C194.401 29.44 194.849 29.256 195.377 29.256C195.889 29.256 196.329 29.44 196.697 29.808C197.065 30.176 197.249 30.616 197.249 31.128C197.249 31.64 197.065 32.08 196.697 32.448C196.329 32.832 195.889 33.024 195.377 33.024ZM200.489 33.024C199.977 33.024 199.529 32.832 199.145 32.448C198.777 32.08 198.593 31.64 198.593 31.128C198.593 30.616 198.777 30.176 199.145 29.808C199.529 29.44 199.977 29.256 200.489 29.256C201.001 29.256 201.441 29.44 201.809 29.808C202.193 30.176 202.385 30.616 202.385 31.128C202.385 31.64 202.193 32.08 201.809 32.448C201.441 32.832 201.001 33.024 200.489 33.024ZM213.944 16.776C214.984 16.776 215.928 17.024 216.776 17.52C217.64 18 218.312 18.672 218.792 19.536C219.288 20.384 219.536 21.32 219.536 22.344C219.536 23.192 219.328 23.968 218.912 24.672C218.496 25.376 217.928 25.944 217.208 26.376C216.504 26.792 215.736 27 214.904 27H203.936L202.544 26.496V24.288L203.936 23.784H214.664C215 23.784 215.296 23.704 215.552 23.544C215.808 23.368 216 23.144 216.128 22.872C216.272 22.584 216.344 22.264 216.344 21.912C216.344 21.464 216.24 21.096 216.032 20.808C215.84 20.52 215.568 20.312 215.216 20.184C214.88 20.04 214.456 19.968 213.944 19.968H205.808L205.472 18.552L210.248 10.296L212.816 11.328L210.056 16.776H213.944Z" fill="#272739"/>
</svg>
